<mxfile host="app.diagrams.net" modified="2023-07-09T04:13:38.835Z" agent="Mozilla/5.0 (iPad; CPU OS 16_3 like Mac OS X) AppleWebKit/605.1.15 (KHTML, like Gecko) CriOS/114.0.5735.124 Mobile/15E148 Safari/604.1" version="21.6.1" etag="_IaE94JkfbxLk8D0rsL6" type="github">
  <diagram name="Page-1" id="mOh5qHRKP6P3XpPfd3e5">
    <mxGraphModel>
      <root>
        <mxCell id="0" />
        <mxCell id="1" parent="0" />
      </root>
    </mxGraphModel>
  </diagram>
</mxfile>
